<?xml version="1.0" encoding="utf-8"?>
<!-- Generator: flash2svg, http://dissentgraphics.com/tools/flash2svg -->
<svg xmlns:xlink="http://www.w3.org/1999/xlink" id="ff_player_idle" image-rendering="optimizeSpeed" baseProfile="basic" version="1.1" style="background-color:#ffffff" x="0px" y="0px" width="128" height="128" viewBox="0 0 128 128" enable-background="new 0 0 128 128" xmlns="http://www.w3.org/2000/svg">
  <defs transform="matrix(1 0 0 1 0 0) "/>
  <g id="g">
    <g id="drawingObject">
      <path id="path" fill="#EC4377" fill-opacity="1" d="M62.251,92.751 L62.251,92.901 C62.201,95.451 62.701,98.601 62.051,100.451 60.901,100.551 57.301,100.001 57.801,101.601 58.151,102.601 62.001,101.551 63.001,102.101 63.051,101.851 63.451,102.051 63.551,101.901 64.351,101.251 64.051,99.901 64.051,98.251 L64.101,93.051 Q62.801,92.901 62.251,92.751z"/>
    </g>
    <g id="drawingObject1">
      <path id="path1" fill="#EC4377" fill-opacity="1" d="M73.251,92.851 C72.751,93.001 72.151,93.051 71.451,93.051 71.501,95.251 71.701,98.551 71.351,100.601 70.501,100.701 69.151,100.751 68.401,100.901 67.901,100.951 67.451,100.851 67.201,101.001 66.951,101.201 66.751,101.651 66.851,102.101 67.801,102.651 69.301,102.401 70.851,102.401 71.451,102.401 72.601,102.451 72.901,102.151 73.251,101.751 73.251,100.051 73.251,99.451 73.351,97.251 73.301,94.701 73.401,92.851 L73.251,92.851z"/>
    </g>
    <g id="drawingObject2">
      <path id="path2" fill="#BF1E2D" fill-opacity="1" d="M43.551,46.751 L43.351,46.701 C43.351,46.801 43.251,46.751 43.251,46.851 42.751,47.051 42.351,47.401 42.001,47.651 40.651,48.651 38.601,49.301 37.251,50.301 L36.801,50.801 C36.301,51.151 35.451,51.651 35.151,52.051 34.451,52.951 35.351,53.251 35.901,53.851 36.251,54.251 36.301,54.351 36.701,54.701 L37.751,55.351 38.351,55.851 C39.001,56.401 39.751,56.951 40.251,57.551 Q40.701,57.751 41.851,58.501 42.801,59.151 43.501,59.401 C43.351,55.201 43.651,51.101 43.551,46.751z"/>
    </g>
    <g id="drawingObject3">
      <path id="path3" fill="#EC4377" fill-opacity="1" d="M70.851,26.351 C70.801,26.101 70.601,25.901 70.351,25.801 68.651,26.051 68.801,28.551 67.551,29.501 66.401,29.201 65.201,29.351 63.901,29.401 63.051,29.401 62.201,29.151 61.351,29.201 59.401,29.401 57.851,29.851 56.501,30.701 56.301,30.651 56.251,30.651 56.101,30.701 52.901,32.301 50.151,34.351 47.801,36.751 46.851,38.551 45.651,40.151 45.051,42.401 44.651,42.651 44.601,43.301 44.301,43.651 L44.301,44.251 C43.401,46.751 43.451,50.101 43.501,53.101 43.501,53.901 43.251,54.601 43.301,55.451 43.551,57.651 43.501,60.251 43.601,62.001 45.051,62.001 46.201,62.201 47.651,62.151 50.501,61.951 53.351,61.651 56.001,61.551 58.551,61.451 61.151,61.651 63.751,61.551 66.101,61.451 68.501,61.651 70.801,61.501 74.501,61.201 78.201,61.051 82.051,61.051 83.101,61.051 84.251,61.251 85.201,60.751 85.351,57.601 85.201,55.051 85.251,52.201 84.801,50.301 84.451,48.901 84.151,46.801 83.601,45.801 83.551,44.401 82.701,43.501 82.801,43.351 82.801,43.151 82.801,42.901 L81.601,39.751 C81.301,39.551 80.951,39.101 81.051,38.751 79.851,37.951 79.301,36.551 78.301,35.551 L79.901,33.851 L78.301,35.551 C79.251,34.301 80.651,33.451 81.151,31.801 81.001,31.451 80.801,31.201 80.451,31.051 79.601,31.301 79.051,32.501 78.401,33.151 L79.351,31.951 L78.401,33.151 C78.251,33.351 77.401,34.151 77.101,34.151 76.701,34.201 76.351,33.501 76.101,33.351 L75.551,33.101 C75.051,32.801 74.651,32.401 74.151,32.151 74.901,30.651 76.051,29.601 76.601,27.951 76.451,27.601 76.051,27.501 75.551,27.451 74.301,28.451 73.801,30.201 72.651,31.301 Q71.551,30.951 71.001,30.751 70.001,30.401 69.601,30.051 C69.701,29.451 70.251,28.501 70.451,27.951 L70.551,27.301 C70.701,26.951 70.951,26.751 70.851,26.351z"/>
    </g>
    <g id="drawingObject4">
      <path id="path4" fill="#413028" fill-opacity="1" d="M55.401,48.551 C56.001,49.751 56.651,51.101 58.401,50.951 58.551,50.951 58.751,50.801 58.901,50.751 L59.651,50.701 C60.651,50.401 61.451,49.051 61.401,47.901 61.401,47.651 61.201,47.051 61.051,46.701 60.701,45.951 60.351,45.401 59.751,45.151 58.901,44.751 57.901,44.851 56.851,45.301 Q55.451,46.451 55.401,48.551z"/>
    </g>
    <g id="drawingObject5">
      <path id="path5" fill="#BF1E2D" fill-opacity="1" d="M48.301,61.401 C46.801,61.601 45.101,61.251 43.451,61.551 43.701,63.001 43.701,64.551 44.001,65.951 44.101,66.551 44.351,67.101 44.451,67.651 L44.651,68.951 C44.801,69.751 45.151,70.451 45.251,71.051 L45.251,71.701 C45.301,71.951 45.451,72.101 45.501,72.301 45.551,72.851 45.451,73.301 45.601,73.801 45.651,74.051 45.901,74.301 46.001,74.551 45.951,75.251 46.201,76.201 46.451,76.951 46.901,78.301 47.801,79.601 48.001,81.201 48.401,81.751 48.701,82.351 49.051,83.001 49.451,83.601 49.651,84.501 50.051,85.051 50.301,85.501 50.901,85.751 51.251,86.151 51.901,87.051 52.601,87.801 53.251,88.601 54.101,89.201 54.851,89.851 55.551,90.651 56.101,90.601 56.351,91.201 56.801,91.401 57.251,91.651 57.951,91.651 58.401,91.901 58.601,92.001 58.651,92.201 58.851,92.251 59.701,92.401 60.601,92.501 61.301,92.851 64.501,93.251 68.501,93.651 72.351,93.301 73.851,93.151 75.451,92.801 76.851,92.901 77.451,92.601 78.151,92.401 78.851,92.251 79.751,92.051 80.801,92.051 81.751,91.851 82.901,91.601 83.901,90.651 85.051,90.601 85.601,90.101 86.101,89.551 86.901,89.401 87.301,88.651 88.101,88.501 88.701,88.001 89.051,87.701 89.401,87.101 89.801,86.551 L91.001,85.201 C91.401,84.751 91.451,83.901 91.901,83.451 91.901,83.251 91.851,82.951 91.951,82.851 92.401,82.301 92.451,81.351 92.901,80.801 92.851,79.951 93.651,79.251 93.151,78.501 92.201,78.251 91.601,79.051 90.951,79.401 89.751,80.001 87.751,80.501 86.201,80.101 85.551,79.951 84.501,79.451 84.101,78.851 83.851,78.501 83.651,77.751 83.551,77.251 83.451,76.351 83.401,74.751 83.501,74.051 L83.751,73.251 C83.851,72.401 83.751,71.501 83.901,70.651 84.101,69.751 84.501,68.751 84.301,67.751 Q84.651,66.401 84.801,64.301 85.001,61.351 85.051,60.801 C83.101,60.701 80.901,60.801 79.251,60.901 78.451,60.901 77.651,60.651 76.851,60.701 75.901,60.751 75.001,61.001 74.051,60.951 L72.301,60.701 C71.851,60.901 71.001,60.701 70.401,60.751 L69.751,60.951 68.751,60.801 C67.651,60.851 66.451,60.951 65.301,60.951 64.301,60.951 63.301,60.701 62.351,60.751 61.951,60.801 61.601,61.001 61.251,61.051 60.251,61.151 59.251,60.851 58.251,61.001 L57.501,61.251 C56.951,61.301 56.451,61.151 55.901,61.101 55.551,61.101 55.251,61.251 54.901,61.301 52.801,61.451 50.501,61.201 48.301,61.401z"/>
    </g>
    <g id="drawingObject6">
      <path id="path6" fill="#EC4377" fill-opacity="1" d="M77.94,69.735 C77.304,69.24 76.491,68.443 75.991,67.984 L75.645,67.492 74.811,67.054 C74.43,66.699 74.192,66.49 73.843,66.289 72.941,65.834 72.438,66.359 71.188,67.09 L68.024,68.998 C67.916,69.408 68.186,69.77 68.241,70.259 68.298,70.457 68.115,70.737 68.198,70.978 68.289,71.33 68.627,71.711 68.81,72.124 69.167,73.13 69.474,74.049 70.122,75.059 71.021,76.499 72.363,77.508 73.388,78.47 73.841,78.552 74.197,78.864 74.553,79.177 75.262,79.399 76.045,79.056 76.674,79.44 77.012,79.127 77.421,79.235 77.791,79.076 78.902,78.601 79.418,77.605 80.273,76.989 80.506,76.101 80.903,75.001 80.428,73.891 80.295,73.564 80.057,73.356 79.881,73.054 79.503,72.408 79.333,71.524 78.887,70.859 Q78.106,70.217 77.94,69.735z"/>
    </g>
  </g>
</svg>